<svg width="28" height="29" viewBox="0 0 28 29" fill="none" xmlns="http://www.w3.org/2000/svg">
<g id="icon">
<path id="Vector" d="M24.6718 4.18915L16.1922 0.412403C14.9478 -0.137468 13.0666 -0.137468 11.8222 0.412403L3.34261 4.18915C1.20101 5.14419 0.88266 6.44651 0.88266 7.14109C0.88266 7.83566 1.20101 9.13799 3.34261 10.093L11.8222 13.8698C12.4444 14.1447 13.2258 14.2894 14.0072 14.2894C14.7886 14.2894 15.57 14.1447 16.1922 13.8698L24.6718 10.093C26.8134 9.13799 27.1318 7.83566 27.1318 7.14109C27.1318 6.44651 26.8279 5.14419 24.6718 4.18915Z" fill="#27B5FF"/>
<path id="Vector_2" opacity="0.4" d="M14.0072 21.7706C13.4574 21.7706 12.9075 21.6549 12.401 21.4378L2.64806 17.0967C1.15762 16.4311 0 14.6513 0 13.0161C0 12.4228 0.477519 11.9453 1.0708 11.9453C1.66408 11.9453 2.1416 12.4228 2.1416 13.0161C2.1416 13.7975 2.79276 14.8104 3.51628 15.1288L13.2693 19.4699C13.7323 19.6724 14.2677 19.6724 14.7307 19.4699L24.4837 15.1288C25.2072 14.8104 25.8584 13.812 25.8584 13.0161C25.8584 12.4228 26.3359 11.9453 26.9292 11.9453C27.5225 11.9453 28 12.4228 28 13.0161C28 14.6368 26.8424 16.4311 25.3519 17.0967L15.599 21.4378C15.107 21.6549 14.5571 21.7706 14.0072 21.7706Z" fill="#27B5FF"/>
<path id="Vector_3" opacity="0.4" d="M14.0072 28.9476C13.4574 28.9476 12.9075 28.8319 12.401 28.6148L2.64806 24.2737C1.04186 23.5647 0 21.9585 0 20.1931C0 19.5998 0.477519 19.1223 1.0708 19.1223C1.66408 19.1223 2.1416 19.5998 2.1416 20.1931C2.1416 21.1047 2.677 21.9295 3.51628 22.3058L13.2693 26.6469C13.7323 26.8494 14.2677 26.8494 14.7307 26.6469L24.4837 22.3058C25.3085 21.944 25.8584 21.1047 25.8584 20.1931C25.8584 19.5998 26.3359 19.1223 26.9292 19.1223C27.5225 19.1223 28 19.5998 28 20.1931C28 21.9585 26.9581 23.5502 25.3519 24.2737L15.599 28.6148C15.107 28.8319 14.5571 28.9476 14.0072 28.9476Z" fill="#27B5FF"/>
</g>
</svg>
