<svg width="30" height="30" viewBox="0 0 30 30" fill="none" xmlns="http://www.w3.org/2000/svg">
<g id="icon">
<path id="Vector" opacity="0.4" d="M29.5304 21.9763L25.005 11.393C24.1809 9.45563 22.952 8.35682 21.5496 8.28453C20.1616 8.21224 18.817 9.18093 17.7905 11.0316L15.0435 15.9617C14.4651 17.0027 13.641 17.6244 12.7446 17.6967C11.8338 17.7835 10.9229 17.3063 10.1856 16.3666L9.86749 15.9617C8.84097 14.675 7.56867 14.0533 6.26744 14.1834C4.96622 14.3135 3.85295 15.2099 3.11559 16.6702L0.614355 21.6582C-0.282043 23.4655 -0.195295 25.5619 0.860141 27.2679C1.91558 28.974 3.75175 30.0005 5.76141 30.0005H24.2099C26.1472 30.0005 27.9545 29.0318 29.0244 27.4125C30.1232 25.7932 30.2967 23.7546 29.5304 21.9763Z" fill="#27B5FF"/>
<path id="Vector_2" d="M7.77109 9.77363C10.47 9.77363 12.6579 7.58573 12.6579 4.88681C12.6579 2.1879 10.47 0 7.77109 0C5.07218 0 2.88428 2.1879 2.88428 4.88681C2.88428 7.58573 5.07218 9.77363 7.77109 9.77363Z" fill="#27B5FF"/>
</g>
</svg>
