<svg width="30" height="30" viewBox="0 0 30 30" fill="none" xmlns="http://www.w3.org/2000/svg">
<g id="icon">
<path id="Vector" opacity="0.4" d="M25.4785 10.4784C25.4785 12.649 24.8348 14.6399 23.7271 16.3015C22.1104 18.6965 19.5507 20.388 16.5718 20.8221C16.0629 20.912 15.539 20.9569 15.0001 20.9569C14.4612 20.9569 13.9373 20.912 13.4283 20.8221C10.4494 20.388 7.8897 18.6965 6.27303 16.3015C5.16531 14.6399 4.52164 12.649 4.52164 10.4784C4.52164 4.68535 9.20699 0 15.0001 0C20.7931 0 25.4785 4.68535 25.4785 10.4784Z" fill="#27B5FF"/>
<path id="Vector_2" d="M28.8465 24.6543L26.3766 25.238C25.8227 25.3728 25.3886 25.7919 25.2689 26.3458L24.7449 28.5463C24.4605 29.7438 22.9337 30.1031 22.1403 29.16L15 20.9569L7.8597 29.1749C7.06633 30.118 5.53948 29.7587 5.25506 28.5612L4.73114 26.3607C4.59642 25.8069 4.16231 25.3728 3.62342 25.253L1.15351 24.6692C0.0158471 24.3998 -0.388321 22.9777 0.434984 22.1544L6.27297 16.3164C7.88964 18.7115 10.4494 20.403 13.4282 20.8371C13.9372 20.9269 14.4611 20.9718 15 20.9718C15.5389 20.9718 16.0628 20.9269 16.5718 20.8371C19.5506 20.403 22.1104 18.7115 23.727 16.3164L29.565 22.1544C30.3883 22.9627 29.9842 24.3848 28.8465 24.6543Z" fill="#27B5FF"/>
<path id="Vector_3" d="M15.8682 5.95778L16.7514 7.72413C16.8712 7.96364 17.1855 8.20315 17.4699 8.24806L19.0716 8.5175C20.0896 8.68216 20.3291 9.43063 19.5956 10.1641L18.3531 11.4065C18.1436 11.6161 18.0238 12.0203 18.0987 12.3197L18.4579 13.8615C18.7423 15.074 18.0987 15.553 17.0209 14.9093L15.524 14.0261C15.2545 13.8615 14.8054 13.8615 14.536 14.0261L13.0391 14.9093C11.9613 15.538 11.3176 15.074 11.602 13.8615L11.9613 12.3197C12.0212 12.0353 11.9164 11.6161 11.7068 11.4065L10.4644 10.1641C9.73088 9.43063 9.97038 8.69713 10.9883 8.5175L12.59 8.24806C12.8594 8.20315 13.1738 7.96364 13.2935 7.72413L14.1767 5.95778C14.6108 4.99975 15.3892 4.99975 15.8682 5.95778Z" fill="#27B5FF"/>
</g>
</svg>
