<svg width="30" height="31" viewBox="0 0 30 31" fill="none" xmlns="http://www.w3.org/2000/svg">
<g id="icon">
<path id="Vector" opacity="0.4" d="M27.8352 16.4584C27.2671 16.4584 26.7912 16.0285 26.7298 15.4604C26.3613 12.0827 24.5496 9.04282 21.7554 7.10833C21.2487 6.7552 21.1259 6.06431 21.479 5.55766C21.8321 5.05101 22.523 4.92818 23.0297 5.2813C26.3613 7.59963 28.5107 11.223 28.956 15.2301C29.0174 15.8443 28.5721 16.397 27.958 16.4584C27.912 16.4584 27.8813 16.4584 27.8352 16.4584Z" fill="#27B5FF"/>
<path id="Vector_2" opacity="0.4" d="M2.31833 16.5352C2.28762 16.5352 2.24156 16.5352 2.21085 16.5352C1.59673 16.4738 1.15149 15.921 1.2129 15.3069C1.62743 11.2998 3.74617 7.67641 7.04709 5.34274C7.53839 4.98962 8.24463 5.11244 8.59775 5.60374C8.95087 6.1104 8.82805 6.80129 8.33675 7.15441C5.57319 9.11961 3.77687 12.1595 3.4391 15.5219C3.37769 16.1053 2.88639 16.5352 2.31833 16.5352Z" fill="#27B5FF"/>
<path id="Vector_3" opacity="0.4" d="M21.1259 29.3089C19.2375 30.2148 17.2108 30.6754 15.0921 30.6754C12.8813 30.6754 10.7779 30.1841 8.81269 29.1861C8.25998 28.9251 8.04503 28.2496 8.32139 27.6969C8.58239 27.1442 9.25793 26.9292 9.81064 27.1902C10.7779 27.6815 11.8065 28.0193 12.8506 28.2189C14.263 28.4952 15.7062 28.5106 17.1187 28.2649C18.1627 28.0807 19.1914 27.7583 20.1433 27.2977C20.7114 27.0367 21.3869 27.2516 21.6325 27.8197C21.9089 28.3724 21.694 29.0479 21.1259 29.3089Z" fill="#27B5FF"/>
<path id="Vector_4" d="M15.0768 0C12.697 0 10.7472 1.93449 10.7472 4.32958C10.7472 6.72467 12.6817 8.65916 15.0768 8.65916C17.4719 8.65916 19.4063 6.72467 19.4063 4.32958C19.4063 1.93449 17.4719 0 15.0768 0Z" fill="#27B5FF"/>
<path id="Vector_5" d="M4.32958 18.2087C1.94985 18.2087 0 20.1432 0 22.5383C0 24.9334 1.93449 26.8679 4.32958 26.8679C6.72467 26.8679 8.65916 24.9334 8.65916 22.5383C8.65916 20.1432 6.70931 18.2087 4.32958 18.2087Z" fill="#27B5FF"/>
<path id="Vector_6" d="M25.6705 18.2087C23.2907 18.2087 21.3409 20.1432 21.3409 22.5383C21.3409 24.9334 23.2754 26.8679 25.6705 26.8679C28.0655 26.8679 30 24.9334 30 22.5383C30 20.1432 28.0655 18.2087 25.6705 18.2087Z" fill="#27B5FF"/>
</g>
</svg>
