<svg width="40" height="40" viewBox="0 0 40 40" fill="none" xmlns="http://www.w3.org/2000/svg">
<g id="linkedin">
<circle id="ellipse" cx="20" cy="20" r="19.5" stroke="#141820" stroke-opacity="0.2"/>
<g id="icon">
<path id="Vector" d="M22.8 17.2C23.9139 17.2 24.9822 17.6425 25.7698 18.4301C26.5575 19.2178 27 20.286 27 21.4V26.3H24.2V21.4C24.2 21.0286 24.0525 20.6726 23.7899 20.41C23.5274 20.1475 23.1713 20 22.8 20C22.4287 20 22.0726 20.1475 21.81 20.41C21.5475 20.6726 21.4 21.0286 21.4 21.4V26.3H18.6V21.4C18.6 20.286 19.0425 19.2178 19.8302 18.4301C20.6178 17.6425 21.6861 17.2 22.8 17.2Z" fill="#141820"/>
<path id="Vector_2" d="M15.8 17.9H13V26.3H15.8V17.9Z" fill="#141820"/>
<path id="Vector_3" d="M14.4 15.8C15.1732 15.8 15.8 15.1732 15.8 14.4C15.8 13.6268 15.1732 13 14.4 13C13.6268 13 13 13.6268 13 14.4C13 15.1732 13.6268 15.8 14.4 15.8Z" fill="#141820"/>
</g>
</g>
</svg>
